<svg width="258" height="175" viewBox="0 0 258 175" fill="none" xmlns="http://www.w3.org/2000/svg">
<path d="M117.293 98.7676C117.293 105.038 107.943 115.928 96.9432 115.378C91.4432 115.158 89.0232 111.418 89.3532 107.018C90.3432 93.2676 104.973 84.3576 123.123 84.3576C130.053 84.3576 136.433 86.7776 138.743 88.5376C132.143 92.7176 124.003 102.508 118.723 108.998C112.233 116.808 107.283 122.528 101.123 126.158C96.5032 125.058 88.1432 123.298 83.4132 123.078C76.4832 122.748 72.0832 124.508 72.0832 127.368C72.0832 130.448 78.1332 130.998 82.0932 130.998C87.8132 130.998 94.5232 130.338 99.0332 128.688C102.993 129.678 108.273 130.778 113.113 130.778C117.513 130.778 121.143 129.238 123.673 127.038C124.773 126.048 124.883 125.388 124.663 125.278C124.443 125.058 124.333 125.388 123.233 126.158C120.593 128.028 117.513 128.578 114.323 128.578C111.793 128.578 106.293 127.478 103.213 126.928V126.818C106.953 125.278 114.323 121.758 121.693 113.838C122.683 114.168 125.323 114.278 127.193 114.168C130.933 113.838 139.073 112.188 143.583 105.808C148.973 98.1076 145.563 91.7276 141.493 88.3176C143.033 87.1076 145.783 85.3476 148.753 84.0276C151.943 82.5976 155.903 81.7176 159.203 81.7176C162.503 81.7176 165.143 82.5976 166.463 84.0276C166.903 84.4676 166.903 84.6876 167.123 84.6876C167.453 84.5776 167.343 84.1376 167.123 83.6976C165.913 81.7176 162.613 80.6176 159.093 80.6176C155.023 80.6176 150.733 81.9376 147.983 83.1476C145.233 84.2476 141.823 86.3376 140.393 87.5476C137.093 85.5676 131.373 83.3676 122.903 83.3676C102.883 83.3676 85.1732 93.5976 84.7332 106.468C84.5132 113.178 89.2432 116.148 96.9432 116.368C108.493 116.808 119.053 107.018 119.053 98.8776C119.053 94.8076 116.193 92.7176 113.003 92.6076C108.933 92.3876 106.183 94.3676 104.973 95.5776C103.653 97.2276 103.213 98.5476 103.433 98.6576C103.763 98.7676 104.093 97.7776 105.523 96.4576C106.843 95.2476 109.593 93.5976 112.673 93.7076C115.313 93.8176 117.293 95.9076 117.293 98.7676ZM122.353 112.848C123.453 111.968 123.783 111.418 124.883 110.098C128.623 105.368 135.003 94.1476 140.063 89.7476C142.703 92.3876 144.023 98.4376 139.843 104.378C136.543 109.108 131.813 112.298 126.643 112.958C125.433 113.068 123.343 113.178 122.353 112.958V112.848ZM97.2732 128.138C94.3032 129.238 87.7032 130.008 82.0932 130.008C79.1232 130.008 73.5132 129.568 73.5132 127.478C73.5132 125.498 77.5832 125.388 82.9732 125.718C86.9332 126.048 93.4232 127.368 97.2732 128.028V128.138ZM158.307 96.2376C156.327 96.2376 154.787 96.6776 154.017 98.3276C153.467 99.7576 153.577 101.408 154.127 102.068C155.227 102.068 157.977 100.858 159.297 99.0976C160.617 97.4476 159.957 96.2376 158.307 96.2376ZM136.417 130.448C140.047 130.448 143.787 127.698 145.987 125.938C148.077 124.398 151.267 121.538 152.587 120.218C152.917 119.888 153.797 119.118 153.467 118.788C153.137 118.458 152.477 119.118 151.927 119.448C150.717 120.658 148.957 122.088 146.647 123.958C144.997 125.388 143.017 126.818 141.807 127.368C140.817 127.808 139.717 128.358 139.167 127.698C138.727 127.368 138.837 126.488 139.497 125.278C140.157 124.178 141.587 122.198 143.457 119.888C145.657 117.248 147.417 115.048 149.287 112.848C150.607 111.308 150.387 111.088 148.077 111.198C145.877 111.088 145.107 111.748 143.017 113.838C140.157 116.698 136.967 119.998 134.767 123.408C133.887 124.728 133.117 126.158 133.117 127.588C133.007 129.238 134.107 130.448 136.417 130.448ZM157.441 125.718C160.081 124.288 162.941 123.298 166.681 121.318C171.521 118.678 174.601 115.928 176.141 113.838C176.471 113.398 177.351 111.858 176.801 111.308C176.471 110.868 175.481 111.088 174.601 111.418C172.071 112.518 168.771 113.288 165.691 113.288C162.831 113.288 162.281 111.968 162.611 111.088C163.051 109.878 163.931 109.658 164.371 109.328C164.371 108.558 163.381 108.228 162.501 108.228C161.291 108.228 159.861 108.668 158.871 109.878C157.881 111.088 157.661 112.518 157.771 113.398C155.461 115.928 153.041 118.458 150.951 120.328C150.511 120.768 150.071 121.428 150.291 121.538C150.511 121.758 151.061 121.538 151.501 121.208C153.921 118.898 156.231 116.588 158.321 114.388C159.201 115.818 161.071 116.368 163.601 116.368C166.351 116.368 170.751 114.938 173.501 113.398C173.721 113.288 174.161 113.178 174.161 113.398C174.271 113.728 174.051 114.058 173.721 114.388C171.961 116.368 169.431 118.458 165.801 120.548C161.951 122.748 159.091 123.738 154.911 125.938C152.931 127.038 151.061 128.028 150.291 129.238C149.961 129.788 149.411 130.668 149.961 131.108C150.401 131.548 150.951 130.888 151.281 130.558C153.041 128.908 155.901 126.488 159.201 126.488C161.291 126.488 162.501 128.358 162.171 131.328C159.641 132.868 156.891 134.628 153.811 136.498C148.531 139.688 140.941 144.198 132.361 150.688C122.571 158.058 115.311 164.988 115.311 170.378C115.311 172.248 116.411 174.228 119.931 174.228C126.421 174.228 138.961 166.088 148.201 157.838C155.021 151.898 165.911 139.688 166.021 131.878C166.021 131.218 166.021 130.668 165.911 130.118C168.001 128.798 170.641 127.038 172.511 125.718C174.821 124.068 178.011 121.428 179.331 120.218C179.661 119.888 180.541 119.008 180.321 118.788C179.991 118.458 179.221 119.118 178.781 119.448C177.351 120.768 174.491 123.078 171.961 124.838C170.201 126.048 167.231 128.028 165.581 129.128C164.701 126.818 162.611 125.608 160.191 125.498C159.311 125.388 158.211 125.608 157.441 125.828V125.718ZM120.371 173.018C118.171 173.018 117.841 171.478 117.951 170.048C118.501 164.878 124.441 158.278 133.021 151.788C141.161 145.628 149.081 140.678 154.361 137.378C156.891 135.728 159.531 134.078 161.841 132.538C160.301 138.148 151.061 149.698 145.231 155.748C137.091 164.438 126.531 173.018 120.371 173.018ZM184.297 125.718C186.937 124.288 189.797 123.298 193.537 121.318C198.377 118.678 201.457 115.928 202.997 113.838C203.327 113.398 204.207 111.858 203.657 111.308C203.327 110.868 202.337 111.088 201.457 111.418C198.927 112.518 195.627 113.288 192.547 113.288C189.687 113.288 189.137 111.968 189.467 111.088C189.907 109.878 190.787 109.658 191.227 109.328C191.227 108.558 190.237 108.228 189.357 108.228C188.147 108.228 186.717 108.668 185.727 109.878C184.737 111.088 184.517 112.518 184.627 113.398C182.317 115.928 179.897 118.458 177.807 120.328C177.367 120.768 176.927 121.428 177.147 121.538C177.367 121.758 177.917 121.538 178.357 121.208C180.777 118.898 183.087 116.588 185.177 114.388C186.057 115.818 187.927 116.368 190.457 116.368C193.207 116.368 197.607 114.938 200.357 113.398C200.577 113.288 201.017 113.178 201.017 113.398C201.127 113.728 200.907 114.058 200.577 114.388C198.817 116.368 196.287 118.458 192.657 120.548C188.807 122.748 185.947 123.738 181.767 125.938C179.787 127.038 177.917 128.028 177.147 129.238C176.817 129.788 176.267 130.668 176.817 131.108C177.257 131.548 177.807 130.888 178.137 130.558C179.897 128.908 182.757 126.488 186.057 126.488C188.147 126.488 189.357 128.358 189.027 131.328C186.497 132.868 183.747 134.628 180.667 136.498C175.387 139.688 167.797 144.198 159.217 150.688C149.427 158.058 142.167 164.988 142.167 170.378C142.167 172.248 143.267 174.228 146.787 174.228C153.277 174.228 165.817 166.088 175.057 157.838C181.877 151.898 192.767 139.688 192.877 131.878C192.877 131.218 192.877 130.668 192.767 130.118C194.857 128.798 197.497 127.038 199.367 125.718C201.677 124.068 204.867 121.428 206.187 120.218C206.517 119.888 207.397 119.008 207.177 118.788C206.847 118.458 206.077 119.118 205.637 119.448C204.207 120.768 201.347 123.078 198.817 124.838C197.057 126.048 194.087 128.028 192.437 129.128C191.557 126.818 189.467 125.608 187.047 125.498C186.167 125.388 185.067 125.608 184.297 125.828V125.718ZM147.227 173.018C145.027 173.018 144.697 171.478 144.807 170.048C145.357 164.878 151.297 158.278 159.877 151.788C168.017 145.628 175.937 140.678 181.217 137.378C183.747 135.728 186.387 134.078 188.697 132.538C187.157 138.148 177.917 149.698 172.087 155.748C163.947 164.438 153.387 173.018 147.227 173.018ZM227.212 115.048C227.872 113.178 227.102 111.198 224.902 110.868C222.042 110.318 217.862 111.858 213.902 113.948C211.702 115.048 209.612 116.588 208.402 117.358C207.302 118.238 205.872 119.228 204.772 120.328C204.332 120.768 203.782 121.318 204.002 121.648C204.222 121.868 204.882 121.428 205.432 120.988C205.762 120.658 206.092 120.328 206.422 119.998H206.532C204.552 122.308 203.562 124.398 203.452 125.938C203.012 129.568 205.542 130.448 207.962 130.338C212.142 130.118 217.202 126.598 220.062 124.068H220.172C219.182 125.278 218.522 126.818 218.632 128.028C218.742 129.348 219.732 130.338 221.822 130.338C225.452 130.338 229.082 127.698 231.282 125.938C233.372 124.398 236.562 121.538 237.882 120.218C238.212 119.888 239.092 119.008 238.762 118.678C238.432 118.348 237.882 119.008 237.332 119.448C236.122 120.548 234.362 122.088 232.052 123.958C230.292 125.388 228.312 126.818 227.102 127.368C226.222 127.808 225.122 128.248 224.572 127.808C224.132 127.478 223.912 126.598 224.792 125.278C225.892 123.518 226.992 122.198 228.752 119.998C231.172 117.028 233.702 114.278 235.132 112.628C236.012 111.308 235.792 110.758 233.482 110.868C231.722 110.868 229.852 112.298 227.322 115.048H227.212ZM224.462 111.968C225.672 111.968 226.552 112.518 226.442 113.948C226.332 115.708 222.372 120.438 218.852 123.518C215.882 126.268 211.702 128.688 209.612 128.688C208.842 128.688 208.292 128.358 208.182 127.588C208.072 126.158 210.382 122.968 214.562 118.788C218.412 114.938 222.262 111.968 224.462 111.968Z" fill="#CFCFCF"/>
<path d="M91.1788 35.36C88.2088 38.22 83.9188 42.07 80.2888 45.04C75.8888 48.78 71.5988 52.08 68.8488 54.06C66.2088 54.5 63.4588 55.38 60.9288 56.48C56.6388 58.35 53.8888 60.99 54.6588 62.31C55.5388 63.74 58.5088 62.75 62.6888 60C65.2188 58.35 67.1988 56.92 69.3988 55.27C71.7088 54.83 76.4388 55.16 78.7488 57.69C81.1688 60.44 80.8388 65.94 80.1788 69.13C69.8388 75.18 60.5988 77.93 47.9488 84.53C37.3888 89.92 24.7388 97.4 24.7388 105.43C24.7388 108.73 27.3788 110.38 31.6688 110.49C41.4588 110.6 58.6188 102.13 71.1588 91.57C79.7388 84.31 86.1188 75.84 86.4488 67.26C89.1988 65.72 93.0488 62.86 94.3688 61.54C94.8088 61.1 95.5788 60.44 95.2488 60.11C94.9188 59.78 94.4788 60.22 93.8188 60.77C92.4988 61.87 89.7488 64.07 86.3388 66.05C86.0088 57.69 80.3988 53.84 73.5788 53.84H71.3788V53.73C74.1288 51.86 78.5288 48.34 83.0388 44.6C88.2088 40.31 92.9388 36.13 95.6888 33.38C98.8788 31.62 101.629 29.86 103.829 27.44C104.929 26.34 104.819 25.35 104.049 25.13C102.619 24.91 99.8688 26.56 98.8788 27.33C96.5688 29.2 94.2588 31.62 92.8288 33.16C87.2188 36.02 82.0488 36.9 78.6388 36.57C76.5488 36.35 74.2388 35.14 74.4588 32.06C74.7888 28.1 78.6388 25.35 82.4888 25.13C83.4788 25.02 84.1388 25.13 84.1388 24.8C84.2488 24.36 82.9288 24.25 82.4888 24.25C76.6588 24.47 68.5188 28.32 67.9688 33.6C67.5288 38.55 72.8088 39.76 76.9888 39.76C81.6088 39.76 86.1188 38.11 91.1788 35.25V35.36ZM79.8488 70.67C77.8688 76.94 72.8088 83.65 65.6588 91.02C55.2088 101.8 40.3588 109.39 31.5588 109.39C28.5888 109.39 25.9488 108.18 25.9488 105.43C25.9488 98.06 38.3788 91.35 48.6088 85.85C59.4988 80.02 70.0588 76.39 79.8488 70.56V70.67ZM67.1988 55.6C65.9888 56.48 64.0088 57.8 61.9188 59.12C59.0588 60.99 56.8588 61.98 56.5288 61.32C56.1988 60.66 58.2888 58.9 61.4788 57.47C63.5688 56.48 65.7688 55.71 67.1988 55.49V55.6ZM115.275 56.37C115.935 54.5 115.165 52.52 112.965 52.19C110.105 51.64 105.925 53.18 101.965 55.27C99.7649 56.37 97.6749 57.91 96.4649 58.68C95.3649 59.56 93.9349 60.55 92.8349 61.65C92.3949 62.09 91.8449 62.64 92.0649 62.97C92.2849 63.19 92.9449 62.75 93.4949 62.31C93.8249 61.98 94.1549 61.65 94.4849 61.32H94.5949C92.6149 63.63 91.6249 65.72 91.5149 67.26C91.0749 70.89 93.6049 71.77 96.0249 71.66C100.205 71.44 105.265 67.92 108.125 65.39H108.235C107.245 66.6 106.585 68.14 106.695 69.35C106.805 70.67 107.795 71.66 109.885 71.66C113.515 71.66 117.145 69.02 119.345 67.26C121.435 65.72 124.625 62.86 125.945 61.54C126.275 61.21 127.155 60.33 126.825 60C126.495 59.67 125.945 60.33 125.395 60.77C124.185 61.87 122.425 63.41 120.115 65.28C118.355 66.71 116.375 68.14 115.165 68.69C114.285 69.13 113.185 69.57 112.635 69.13C112.195 68.8 111.975 67.92 112.855 66.6C113.955 64.84 115.055 63.52 116.815 61.32C119.235 58.35 121.765 55.6 123.195 53.95C124.075 52.63 123.855 52.08 121.545 52.19C119.785 52.19 117.915 53.62 115.385 56.37H115.275ZM112.525 53.29C113.735 53.29 114.615 53.84 114.505 55.27C114.395 57.03 110.435 61.76 106.915 64.84C103.945 67.59 99.7649 70.01 97.6749 70.01C96.9049 70.01 96.3549 69.68 96.2449 68.91C96.1349 67.48 98.4449 64.29 102.625 60.11C106.475 56.26 110.325 53.29 112.525 53.29ZM144.874 32.61C144.874 31.84 144.324 31.62 143.444 31.62C141.354 31.84 139.484 32.5 138.934 33.71C138.604 34.7 139.154 35.03 138.604 36.02C137.724 37.78 136.294 39.43 134.974 40.75C134.424 41.41 133.984 41.63 134.204 41.96C134.314 42.07 134.864 41.74 135.414 41.41C137.504 40.31 141.354 37.45 144.104 34.26C144.654 33.6 144.874 33.05 144.874 32.61ZM148.485 68.69C149.805 67.81 151.345 65.72 152.005 64.18C153.325 61.1 153.105 58.24 152.995 55.16C152.995 53.95 152.885 53.07 153.765 52.19C154.315 51.64 155.415 51.2 156.405 50.54C158.055 49.44 159.485 48.23 156.955 48.23C156.185 48.23 154.975 48.45 153.765 49.44C153.105 49.88 152.225 50.87 152.005 51.31C148.155 54.72 145.405 56.7 142.105 58.9C141.225 59.56 140.015 60.33 139.245 60.88C138.915 60.22 138.475 60 137.815 59.89C134.955 59.67 132.315 62.53 131.875 65.5C131.765 65.83 131.765 66.27 131.765 66.71C130.225 67.92 128.685 69.57 127.805 70.56C127.145 71.33 126.265 72.43 126.705 72.76C127.035 73.09 127.695 72.1 128.685 71.11C129.455 70.23 130.775 69.02 131.985 67.92C132.645 70.01 134.405 71.99 139.025 71.99C142.325 71.99 146.285 70.89 148.265 70.01C150.355 69.13 152.775 67.92 155.195 66.27C157.615 64.62 160.035 62.53 161.135 61.54C161.465 61.21 162.235 60.33 162.015 60.11C161.685 59.78 161.025 60.33 160.585 60.77C159.155 61.98 156.405 64.29 153.325 66.16C151.565 67.26 149.805 68.25 148.485 68.8V68.69ZM150.905 53.73C149.695 55.16 147.495 62.09 145.735 64.95C143.315 69.13 140.565 70.89 138.365 70.89C136.385 70.89 135.065 69.9 135.175 68.14C135.285 66.6 136.275 65.5 137.155 64.95C138.695 63.96 139.465 62.97 139.465 61.87C140.565 61.21 142.545 59.89 143.535 59.23C145.515 57.91 149.365 55.16 150.905 53.62V53.73Z" fill="#CFCFCF"/>
</svg>
